<?xml version="1.0" standalone="no"?>
<!DOCTYPE svg PUBLIC "-//W3C//DTD SVG 20010904//EN"
 "http://www.w3.org/TR/2001/REC-SVG-20010904/DTD/svg10.dtd">
<svg version="1.0" xmlns="http://www.w3.org/2000/svg"
 width="979.000000pt" height="979.000000pt" viewBox="0 0 979.000000 979.000000"
 preserveAspectRatio="xMidYMid meet">
<metadata>
Created by potrace 1.11, written by Peter Selinger 2001-2013
</metadata>
<g transform="translate(0.000000,979.000000) scale(0.100000,-0.100000)"
fill="#000000" stroke="none">
<path d="M4867 9753 c-1 -1 -56 -3 -122 -4 -726 -13 -1501 -225 -2161 -590
-300 -166 -565 -352 -852 -597 -64 -55 -324 -311 -398 -392 -214 -236 -448
-557 -609 -835 -54 -93 -225 -427 -225 -439 0 -3 -11 -29 -24 -58 -175 -379
-333 -977 -372 -1403 -3 -38 -8 -72 -9 -75 -17 -28 -24 -582 -11 -790 58 -929
397 -1849 960 -2600 81 -109 74 -100 196 -245 337 -398 814 -795 1275 -1060
229 -132 553 -279 815 -370 315 -110 737 -204 1030 -231 30 -2 60 -7 67 -9 48
-16 545 -25 758 -12 448 25 937 128 1360 284 399 148 742 328 1110 583 78 54
310 233 325 251 3 3 43 39 90 79 99 85 326 312 420 419 719 815 1138 1823
1214 2921 7 91 7 553 1 620 -28 305 -28 310 -61 510 -191 1162 -815 2230
-1739 2976 -743 600 -1628 959 -2585 1049 -86 8 -449 23 -453 18z m-677 -642
l0 -220 694 0 c520 1 695 4 698 12 3 7 4 105 4 220 l-1 207 23 0 c12 0 80 -11
150 -25 655 -131 1264 -406 1806 -814 322 -242 639 -561 891 -896 66 -88 215
-309 253 -376 11 -19 36 -63 57 -99 298 -522 492 -1128 561 -1762 26 -228 25
-762 -1 -943 -3 -16 -7 -52 -10 -80 -91 -786 -422 -1585 -919 -2220 -225 -287
-518 -580 -786 -785 -25 -19 -49 -38 -55 -43 -261 -202 -642 -418 -991 -563
-347 -143 -833 -268 -1174 -299 -41 -4 -111 -11 -155 -15 -84 -9 -667 -6 -745
4 -25 3 -67 8 -95 11 -614 73 -1176 257 -1705 560 -216 123 -515 337 -720 515
-91 79 -323 311 -406 406 -472 540 -808 1172 -983 1854 -36 138 -84 373 -96
470 -3 19 -7 53 -10 75 -9 69 -14 111 -20 197 -3 45 -8 101 -11 123 -11 97 -4
520 11 670 13 127 26 241 30 255 2 8 6 38 10 65 29 237 148 669 267 965 563
1402 1792 2427 3268 2725 63 13 125 24 138 24 l22 1 0 -219z"/>
<path d="M3183 6831 c-47 -18 -98 -60 -132 -109 -28 -41 -39 -132 -21 -188 10
-32 196 -223 1023 -1051 1000 -1001 1011 -1013 974 -1014 -20 0 -141 0 -268
-1 -264 0 -297 -6 -359 -70 -44 -44 -60 -88 -60 -169 0 -108 71 -199 170 -217
25 -5 299 -8 610 -7 629 1 605 -1 674 70 64 65 64 66 60 700 -3 376 -8 581
-15 603 -15 47 -66 102 -114 123 -45 21 -130 24 -188 8 -52 -14 -122 -84 -136
-134 -7 -24 -11 -144 -11 -307 l0 -268 -1009 1009 c-735 734 -1018 1012 -1043
1020 -56 18 -112 19 -155 2z"/>
<path d="M1754 5065 c-186 -40 -344 -198 -383 -383 -74 -356 234 -668 589
-596 100 21 182 65 255 139 194 195 194 503 0 701 -120 123 -292 175 -461 139z"/>
<path d="M7826 5068 c-217 -40 -390 -239 -402 -461 -15 -287 197 -520 483
-531 88 -3 141 8 231 50 85 39 180 128 224 210 77 142 78 326 3 473 -56 111
-189 218 -314 251 -59 16 -164 19 -225 8z"/>
<path d="M2895 3179 c-110 -20 -223 -89 -296 -181 -52 -66 -74 -109 -93 -185
-69 -265 96 -543 364 -613 66 -18 186 -16 255 4 217 63 365 261 365 486 0 137
-48 248 -150 350 -121 121 -278 170 -445 139z"/>
<path d="M6687 3179 c-180 -37 -338 -185 -384 -363 -68 -259 83 -531 337 -606
131 -39 242 -30 365 30 304 149 377 535 147 787 -53 59 -143 116 -217 139 -64
19 -186 26 -248 13z"/>
<path d="M4763 2405 c-133 -36 -248 -127 -312 -246 -145 -268 -22 -596 267
-711 81 -32 261 -32 343 0 287 113 411 432 273 704 -36 71 -132 169 -203 207
-112 59 -253 77 -368 46z"/>
</g>
</svg>
