<?xml version="1.0" standalone="no"?>
<!DOCTYPE svg PUBLIC "-//W3C//DTD SVG 20010904//EN"
 "http://www.w3.org/TR/2001/REC-SVG-20010904/DTD/svg10.dtd">
<svg version="1.0" xmlns="http://www.w3.org/2000/svg"
 width="979.000000pt" height="979.000000pt" viewBox="0 0 979.000000 979.000000"
 preserveAspectRatio="xMidYMid meet">
<metadata>
Created by potrace 1.11, written by Peter Selinger 2001-2013
</metadata>
<g transform="translate(0.000000,979.000000) scale(0.100000,-0.100000)"
fill="#000000" stroke="none">
<path d="M4777 9764 c-1 -1 -67 -5 -147 -8 -80 -4 -158 -9 -175 -11 -16 -2
-59 -7 -95 -10 -62 -6 -106 -11 -160 -21 -14 -2 -45 -7 -70 -10 -72 -9 -229
-41 -367 -74 -458 -109 -915 -292 -1328 -535 -142 -83 -391 -252 -520 -354
-390 -307 -673 -605 -1002 -1053 -47 -64 -204 -313 -247 -391 -20 -37 -45 -82
-55 -100 -57 -103 -141 -278 -187 -392 -14 -33 -29 -69 -34 -80 -23 -49 -105
-273 -115 -315 -1 -3 -5 -12 -8 -20 -7 -17 -75 -256 -82 -286 -2 -10 -15 -66
-29 -124 -14 -58 -27 -118 -30 -135 -3 -16 -12 -69 -20 -116 -8 -48 -18 -108
-21 -135 -4 -27 -8 -60 -10 -74 -16 -111 -18 -125 -31 -340 -12 -185 -5 -641
10 -728 2 -9 7 -48 11 -87 18 -186 65 -445 116 -650 48 -191 153 -515 204
-630 7 -16 30 -70 51 -120 47 -112 207 -427 262 -518 23 -37 42 -69 42 -71 0
-10 254 -383 270 -396 3 -3 19 -23 35 -45 151 -205 447 -520 670 -712 423
-362 885 -644 1387 -845 128 -51 385 -138 408 -138 9 0 20 -3 24 -7 3 -4 12
-8 19 -10 7 -1 64 -16 127 -33 145 -38 270 -64 450 -94 79 -14 115 -18 245
-32 28 -3 64 -7 80 -9 77 -9 295 -18 435 -18 155 0 431 11 453 18 7 2 44 6 82
9 39 4 81 8 95 10 14 3 43 7 65 10 188 24 442 78 650 137 99 29 286 88 310 99
11 5 45 17 75 28 195 70 491 211 710 337 807 466 1481 1175 1900 2000 182 359
281 621 380 1000 66 251 102 460 135 770 27 261 22 804 -10 985 -3 14 -7 50
-10 80 -15 141 -59 375 -106 565 -109 439 -292 886 -524 1280 -91 155 -340
516 -379 550 -6 6 -19 21 -27 35 -43 66 -243 284 -414 450 -821 800 -1922
1285 -3075 1355 -97 6 -418 13 -423 9z m-467 -1017 l0 -514 590 0 590 0 0 514
0 513 29 0 c15 0 53 -5 82 -10 30 -6 70 -13 89 -16 19 -3 55 -10 80 -16 25 -5
59 -12 75 -15 64 -10 306 -77 430 -118 581 -192 1084 -484 1570 -910 99 -87
287 -279 385 -394 30 -35 60 -69 65 -75 22 -23 174 -224 231 -306 141 -203
317 -515 403 -720 13 -30 31 -73 41 -95 33 -76 42 -101 86 -222 81 -228 172
-593 198 -793 3 -25 8 -54 10 -65 2 -12 7 -51 10 -87 4 -37 8 -75 10 -85 23
-119 24 -643 1 -858 -11 -103 -16 -152 -20 -175 -2 -14 -9 -54 -14 -90 -6 -36
-13 -74 -15 -85 -2 -11 -7 -40 -12 -65 -4 -25 -8 -47 -9 -50 -1 -3 -4 -18 -8
-35 -4 -16 -9 -39 -11 -50 -2 -11 -14 -58 -25 -105 -12 -47 -24 -95 -27 -108
-10 -47 -144 -433 -173 -497 -10 -22 -29 -65 -42 -95 -40 -93 -150 -311 -196
-388 -23 -41 -43 -76 -43 -78 0 -3 -39 -65 -86 -137 -94 -143 -253 -359 -330
-448 -27 -30 -64 -73 -82 -95 -45 -52 -192 -202 -283 -289 -581 -549 -1358
-951 -2129 -1101 -14 -3 -56 -11 -95 -19 -66 -13 -169 -28 -277 -40 -27 -3
-67 -7 -90 -10 -126 -14 -204 -17 -408 -17 -124 0 -261 3 -305 6 -129 11 -188
16 -220 21 -16 2 -68 9 -115 15 -305 41 -716 151 -1015 272 -133 54 -438 203
-550 268 -143 84 -332 210 -471 316 -591 448 -1077 1064 -1369 1739 -26 61
-55 128 -65 150 -40 90 -163 481 -184 585 -41 195 -65 323 -70 360 -3 25 -8
56 -10 70 -50 300 -51 879 -1 1200 108 694 313 1242 678 1810 79 123 309 428
351 465 6 6 24 26 40 45 107 132 359 369 595 560 100 80 361 255 515 344 171
98 575 288 661 310 6 2 17 6 25 9 74 32 452 141 560 162 222 43 281 53 313 54
l37 1 0 -513z"/>
<path d="M2642 7512 c-65 -24 -116 -65 -173 -142 -59 -78 -68 -203 -22 -295 8
-16 630 -645 1381 -1397 l1367 -1368 -85 0 c-47 0 -220 -1 -385 -3 -343 -3
-355 -5 -439 -91 -58 -60 -80 -125 -79 -229 3 -162 98 -275 250 -295 32 -4
393 -7 803 -7 858 1 810 -4 907 92 93 93 89 57 86 890 -1 395 -4 750 -7 789
-12 198 -175 311 -391 270 -87 -17 -168 -84 -208 -174 -19 -44 -20 -64 -18
-422 l2 -375 -1363 1362 c-1118 1117 -1372 1366 -1410 1383 -69 30 -151 34
-216 12z"/>
<path d="M1359 5305 c-138 -37 -269 -143 -326 -265 -95 -200 -58 -417 96 -570
107 -107 223 -152 371 -146 228 10 405 154 464 377 14 51 15 189 3 234 -51
186 -185 322 -365 370 -63 16 -181 16 -243 0z"/>
<path d="M8195 5304 c-214 -56 -363 -244 -371 -465 -5 -149 39 -262 145 -368
98 -98 194 -141 331 -146 148 -6 264 39 371 145 274 272 146 735 -229 835 -64
16 -182 16 -247 -1z"/>
<path d="M2633 3170 c-355 -91 -490 -537 -244 -811 97 -108 205 -160 346 -165
110 -4 159 6 250 51 242 118 342 412 224 662 -100 211 -343 322 -576 263z"/>
<path d="M6896 3174 c-149 -36 -293 -162 -347 -303 -71 -187 -26 -396 116
-535 99 -98 211 -144 351 -144 205 0 383 119 460 308 109 268 -27 564 -301
661 -74 26 -201 32 -279 13z"/>
<path d="M4857 2314 c-1 -1 -20 -4 -42 -7 -86 -12 -178 -56 -248 -117 -219
-193 -229 -520 -23 -726 99 -99 213 -146 352 -146 136 -1 252 48 350 146 124
124 174 299 133 470 -40 171 -194 325 -367 366 -47 11 -148 20 -155 14z"/>
</g>
</svg>
